<?xml version="1.0" encoding="UTF-8" standalone="no"?>
<svg
   width="6.406795in"
   height="1.4515752in"
   viewBox="0 0 1922.0385 435.47255"
   version="1.1"
   id="svg75"
   sodipodi:docname="penpath.svg"
   inkscape:export-filename="penpath2.svg"
   inkscape:export-xdpi="101.39165"
   inkscape:export-ydpi="101.39165"
   xmlns:inkscape="http://www.inkscape.org/namespaces/inkscape"
   xmlns:sodipodi="http://sodipodi.sourceforge.net/DTD/sodipodi-0.dtd"
   xmlns="http://www.w3.org/2000/svg"
   xmlns:svg="http://www.w3.org/2000/svg">
  <defs
     id="defs79" />
  <sodipodi:namedview
     id="namedview77"
     pagecolor="#ffffff"
     bordercolor="#000000"
     borderopacity="0.25"
     inkscape:showpageshadow="2"
     inkscape:pageopacity="0.0"
     inkscape:pagecheckerboard="0"
     inkscape:deskcolor="#d1d1d1"
     inkscape:document-units="in"
     showgrid="false" />
  <path
     style="fill:none;fill-opacity:1;stroke:#ffffff;stroke-width:2.4;stroke-dasharray:none;stroke-opacity:1"
     d="m 2.6342776,385.33734 c 0,0 89.5599754,-15.11247 143.0730024,14.61697 53.51301,29.72947 214.05206,7.92787 227.92581,-1.98194 13.87375,-9.90984 170.44888,-59.45891 221.97991,-49.54909 51.53106,9.90981 220.49345,41.86897 253.93909,49.05359 32.99883,7.08863 136.49696,17.97151 145.67436,-11.39628 7.43225,-23.78358 -22.6227,-62.89051 -64.6616,-59.70667 -27.25939,2.06452 -27.19359,46.34357 -15.23395,57.50485 61.99285,57.8545 220.9889,52.02656 268.556,48.06262 47.5671,-3.96394 137.1247,-71.62633 194.6017,-63.69849 57.4769,7.92784 174.4128,57.47694 285.4027,61.44088 110.99,3.96393 257.7378,-49.30866 257.7378,-49.30866"
     id="path6627"
     sodipodi:nodetypes="cssssssssssc" />
  <path
     id="pen body"
     fill="none"
     stroke="#000000"
     stroke-width="1.34091"
     d="m 61.368903,345.07216 c 0,0 269.870657,-276.441087 282.434947,-300.577387 3.32544,-4.31771 23.96198,-31.95378 11.07588,-41.4608004 -16.43951,-10.13724 -40.10649,14.6426904 -40.10649,14.6426904 0,0 -169.66478,171.340907 -279.900632,303.621247 16.90882,20.00631 26.496295,23.77425 26.496295,23.77425 z"
     style="fill:#000000;fill-opacity:1;stroke-width:1.2;stroke-dasharray:none" />
  <path
     id="pen highlights"
     fill="none"
     stroke="#000000"
     stroke-width="1.34091"
     d="m 314.88051,17.596213 c 0,0 18.10223,5.36362 29.41947,26.22811 1.18,-1.3409 5.44408,-7.79066 5.44408,-7.79066 0,0 -13.7711,-18.54472 -28.85629,-23.90835 -2.27954,1.77 -6.00726,5.4709 -6.00726,5.4709 z M 202.48581,199.04755 c 0,0 10.88815,-11.49156 10.92838,-11.49156 0.0268,0 -33.13378,-29.49993 -33.13378,-29.49993 0,0 -10.3786,10.90157 -10.3786,10.90157 0,0 32.584,30.08992 32.584,30.08992 z m 13.75769,-14.46837 c 0,0 2.80249,-2.78909 2.80249,-2.84272 0,-0.067 -32.67786,-30.14356 -32.67786,-30.14356 0,0 -2.72204,2.8159 -2.72204,2.8159 0,0 32.59741,30.17038 32.59741,30.17038 z m -20.07335,21.0388 c 0,0 3.36567,-3.53999 3.36567,-3.53999 0,0 -32.93264,-29.27196 -32.93264,-29.27196 0,0 -3.00363,3.23158 -3.00363,3.23158 0,0 32.5706,29.58037 32.5706,29.58037 z"
     style="display:inline;fill:#ffffff;fill-opacity:1;stroke:none;stroke-width:1.2;stroke-dasharray:none" />
  <path
     id="pen highlight"
     fill="none"
     stroke="#000000"
     stroke-width="1.34091"
     d="M 38.224872,324.42222 C 39.37805,320.09109 178.69815,167.64354 178.69815,167.64354 c 0,0 136.31645,-146.748697 141.02303,-147.566657 0.32182,4.00931 -138.12668,150.248467 -138.12668,150.248467 0,0 -137.871914,152.78278 -143.369628,154.09687 z"
     style="display:inline;fill:#ffffff;fill-opacity:1;stroke:none;stroke-width:1.2;stroke-dasharray:none;stroke-opacity:1" />
  <path
     id="pen clip"
     fill="none"
     stroke="#000000"
     stroke-width="1.34091"
     d="m 204.47035,130.88932 c 0,0 -26.87175,16.33223 -26.87175,16.33223 0,0 0,-5.13567 0,-5.13567 0,0 -4.63953,1.18 22.01767,-26.81811 0.87159,-0.67045 96.15634,-96.142927 96.15634,-96.142927 0,0 12.1486,-5.0284 18.62518,-1.11295 -0.99227,1.22022 -6.91908,7.09339 -6.91908,7.09339 0,0 -4.53226,-3.45954 -7.75043,-1.01909 -1.23363,1.26045 -95.41884,95.459067 -95.41884,95.459067 0,0 0.16091,11.34406 0.16091,11.34406 z"
     style="fill:#ffffff;fill-opacity:1;stroke-width:1.2;stroke-dasharray:none" />
  <path
     id="pen tip"
     fill="none"
     stroke="#000000"
     stroke-width="1.34091"
     d="m 2.8249653,372.21209 c 0,0 32.0610517,-50.95441 32.0610517,-50.95441 0,0 11.022245,15.04496 26.523113,23.93516 -1.340906,1.16659 -51.115321,38.00127 -52.375773,39.18126 -14.1599616,4.4384 -6.2083917,-12.16201 -6.2083917,-12.16201 z m 23.2244837,7.05316"
     style="fill:#ffffff;fill-opacity:1;stroke-width:1.2;stroke-dasharray:none" />
</svg>
